name Run_20002_IK.mot
datacolumns 164
datarows 4
range 1.36 1.39
endheader
time	         pelvis_tilt	         pelvis_list	     pelvis_rotation	           pelvis_tx	           pelvis_ty	           pelvis_tz	       hip_flexion_r	     hip_adduction_r	      hip_rotation_r	        knee_angle_r	       ankle_angle_r	       hip_flexion_l	     hip_adduction_l	      hip_rotation_l	        knee_angle_l	       ankle_angle_l	    lumbar_extension	      lumbar_bending	     lumbar_rotation	          arm_flex_r	           arm_add_r	           arm_rot_r	        elbow_flex_r	           pro_sup_r	          arm_flex_l	           arm_add_l	           arm_rot_l	        elbow_flex_l	           pro_sup_l	    subtalar_angle_r	         mtp_angle_r	    subtalar_angle_l	         mtp_angle_l	        wrist_flex_r	         wrist_dev_r	        wrist_flex_l	         wrist_dev_l	             LASI_tx	             LASI_ty	             LASI_tz	             RASI_tx	             RASI_ty	             RASI_tz	             LPSI_tx	             LPSI_ty	             LPSI_tz	             RPSI_tx	             RPSI_ty	             RPSI_tz	             RTH1_tx	             RTH1_ty	             RTH1_tz	             RTH2_tx	             RTH2_ty	             RTH2_tz	             RTH3_tx	             RTH3_ty	             RTH3_tz	             LTH1_tx	             LTH1_ty	             LTH1_tz	             LTH2_tx	             LTH2_ty	             LTH2_tz	             LTH3_tx	             LTH3_ty	             LTH3_tz	             RTB1_tx	             RTB1_ty	             RTB1_tz	             RTB2_tx	             RTB2_ty	             RTB2_tz	             RTB3_tx	             RTB3_ty	             RTB3_tz	             LTB1_tx	             LTB1_ty	             LTB1_tz	             LTB2_tx	             LTB2_ty	             LTB2_tz	             LTB3_tx	             LTB3_ty	             LTB3_tz	             RCAL_tx	             RCAL_ty	             RCAL_tz	             RTOE_tx	             RTOE_ty	             RTOE_tz	             RMT5_tx	             RMT5_ty	             RMT5_tz	             LCAL_tx	             LCAL_ty	             LCAL_tz	             LTOE_tx	             LTOE_ty	             LTOE_tz	             LMT5_tx	             LMT5_ty	             LMT5_tz	             LACR_tx	             LACR_ty	             LACR_tz	             RACR_tx	             RACR_ty	             RACR_tz	             CLAV_tx	             CLAV_ty	             CLAV_tz	               C7_tx	               C7_ty	               C7_tz	             RUA1_tx	             RUA1_ty	             RUA1_tz	             RUA2_tx	             RUA2_ty	             RUA2_tz	             RUA3_tx	             RUA3_ty	             RUA3_tz	             RLEL_tx	             RLEL_ty	             RLEL_tz	             RMEL_tx	             RMEL_ty	             RMEL_tz	             LUA1_tx	             LUA1_ty	             LUA1_tz	             LUA2_tx	             LUA2_ty	             LUA2_tz	             LUA3_tx	             LUA3_ty	             LUA3_tz	             LLEL_tx	             LLEL_ty	             LLEL_tz	             LMEL_tx	             LMEL_ty	             LMEL_tz	      RFAsuperior_tx	      RFAsuperior_ty	      RFAsuperior_tz	        RFAradius_tx	        RFAradius_ty	        RFAradius_tz	          RFAulna_tx	          RFAulna_ty	          RFAulna_tz	      LFAsuperior_tx	      LFAsuperior_ty	      LFAsuperior_tz	        LFAradius_tx	        LFAradius_ty	        LFAradius_tz	          LFAulna_tx	          LFAulna_ty	          LFAulna_tz	
1.36	        -13.15727768	         -0.05289009	         -1.50252566	          1.03060477	          1.04327817	         -0.35024108	          5.03355369	          1.34716644	          2.32708499	        -38.90417328	        -15.16240228	         29.62278675	          3.14905626	          0.94446190	         -9.89737134	          5.47844133	          0.28465517	          0.70637404	         10.37199445	        -21.08766160	        -19.55734022	          0.72213236	        114.89443169	        114.93480004	        -43.58718919	        -14.70720225	        -11.80791677	        120.55954322	        102.25988884	          0.00000000	          0.00000000	          0.00000000	          0.00000000	          0.00000000	          0.00000000	          0.00000000	          0.00000000	          1.06911655	          1.07403275	         -0.47729336	          1.04668379	          1.08712184	         -0.23127942	          0.88167685	          1.14516308	         -0.40755989	          0.88447014	          1.14036577	         -0.29407503	          0.96027492	          0.96275037	         -0.17715753	          0.88566709	          0.82469191	         -0.19329959	          0.89754537	          0.66911333	         -0.20778761	          0.99668331	          0.96071118	         -0.53222875	          0.96345132	          0.79646507	         -0.48414732	          1.04609231	          0.67812561	         -0.48220653	          0.81727757	          0.42150079	         -0.27587372	          0.73178374	          0.43998356	         -0.20445685	          0.66600868	          0.30400698	         -0.27989050	          1.14632512	          0.47043060	         -0.41489952	          1.07500530	          0.35258629	         -0.46554700	          1.14293844	          0.25378307	         -0.40206133	          0.50722651	          0.31340985	         -0.26815981	          0.60866426	          0.09760315	         -0.31450900	          0.56966430	          0.11661499	         -0.21729162	          1.03986719	          0.09537549	         -0.37465342	          1.27129010	          0.14386220	         -0.35937180	          1.24191934	          0.07421223	         -0.44189458	          1.01641698	          1.58069939	         -0.50661788	          1.07603300	          1.54974557	         -0.19473608	          1.10600923	          1.51551919	         -0.33246218	          0.98714019	          1.59309885	         -0.34296324	          0.98126262	          1.45771782	         -0.11204038	          1.02626403	          1.39243605	         -0.10076203	          0.97207841	          1.31572252	         -0.04824113	          0.94636905	          1.25323544	         -0.02194876	          0.91519097	          1.23724113	         -0.10556897	          0.88930974	          1.52630613	         -0.54941207	          0.89177355	          1.44622981	         -0.58441999	          0.80021296	          1.40826679	         -0.59499526	          0.76181898	          1.34914331	         -0.61107487	          0.75820968	          1.32471136	         -0.52395530	          1.03583053	          1.21106618	         -0.06765270	          1.14185333	          1.20979819	         -0.21091162	          1.15012966	          1.15430433	         -0.16973028	          0.81548189	          1.28610738	         -0.62014241	          0.99303697	          1.24784048	         -0.56267678	          0.96779598	          1.18932114	         -0.59683648	
1.37	        -13.25056651	          0.01083417	         -1.36184051	          1.03098338	          1.03695921	         -0.35128387	          6.31370881	          1.33767126	          2.79862396	        -42.74843089	        -14.30743081	         29.77374018	          3.41870522	          1.06086843	        -11.03728839	          4.34538045	          0.58759549	          0.57628269	          9.90697876	        -21.82956472	        -19.41633639	          0.40182730	        113.51584056	        115.36671353	        -42.94318363	        -14.35482964	        -11.87835580	        120.54318063	        102.54803376	          0.00000000	          0.00000000	          0.00000000	          0.00000000	          0.00000000	          0.00000000	          0.00000000	          0.00000000	          1.06969414	          1.06747675	         -0.47856215	          1.04732907	          1.08058044	         -0.23248832	          0.88214373	          1.13867873	         -0.40815311	          0.88482083	          1.13398591	         -0.29471081	          0.96273396	          0.95615583	         -0.17829156	          0.89015982	          0.81686493	         -0.19400217	          0.90542358	          0.66150277	         -0.20839766	          0.99678030	          0.95472005	         -0.53315842	          0.96366139	          0.79042997	         -0.48453537	          1.04699086	          0.67245719	         -0.48206457	          0.82123236	          0.41670505	         -0.27559835	          0.73716659	          0.43934424	         -0.20348069	          0.66438816	          0.30658544	         -0.27796328	          1.14448669	          0.46311361	         -0.41494477	          1.07172281	          0.34639870	         -0.46601957	          1.13773200	          0.24662430	         -0.40217376	          0.50524209	          0.32259034	         -0.26481855	          0.59991753	          0.10413995	         -0.31287535	          0.56114696	          0.12333154	         -0.21572161	          1.03180843	          0.09291583	         -0.37440305	          1.26389000	          0.13285979	         -0.35784859	          1.23296792	          0.06195942	         -0.43846821	          1.01602177	          1.57423763	         -0.50817386	          1.07479553	          1.54422437	         -0.19581654	          1.10549562	          1.51013789	         -0.33333842	          0.98627204	          1.58711458	         -0.34462235	          0.97852789	          1.45321682	         -0.11362371	          1.02301682	          1.38787921	         -0.10124904	          0.96775573	          1.31151774	         -0.04936850	          0.94105952	          1.24952519	         -0.02294483	          0.91041223	          1.23341752	         -0.10655429	          0.88928111	          1.51809061	         -0.55113019	          0.89292076	          1.43775471	         -0.58546440	          0.80197752	          1.39829560	         -0.59601639	          0.76453085	          1.33847813	         -0.61190651	          0.76129379	          1.31420432	         -0.52461646	          1.03002838	          1.20412919	         -0.06685472	          1.13811643	          1.19723788	         -0.20909287	          1.14408522	          1.14278834	         -0.16614416	          0.81923133	          1.27626632	         -0.62073966	          0.99729185	          1.24088066	         -0.56287690	          0.97305443	          1.18199307	         -0.59716731	
1.38	        -13.31126754	          0.10074467	         -1.22202009	          1.03145094	          1.02978363	         -0.35223715	          7.64588432	          1.27725726	          3.09449304	        -46.67915545	        -13.02468872	         30.04678694	          3.68357220	          0.52212460	        -12.94050919	          2.76743519	          0.88059717	          0.41641986	          9.39981233	        -22.59010787	        -19.21798371	         -0.01260225	        111.96604181	        115.80145355	        -42.22721049	        -14.03600755	        -11.90709289	        120.41461652	        102.79006690	          0.00000000	          0.00000000	          0.00000000	          0.00000000	          0.00000000	          0.00000000	          0.00000000	          0.00000000	          1.07032524	          1.05992683	         -0.47975985	          1.04802786	          1.07304506	         -0.23362614	          0.88261029	          1.13107878	         -0.40870538	          0.88522581	          1.12662747	         -0.29525708	          0.96518768	          0.94868947	         -0.17940269	          0.89463543	          0.80825684	         -0.19477456	          0.91341736	          0.65312132	         -0.20877004	          0.99678594	          0.94764102	         -0.53383991	          0.96387289	          0.78338924	         -0.48468777	          1.04789171	          0.66590417	         -0.48216482	          0.82617587	          0.41136334	         -0.27501769	          0.74333661	          0.43839918	         -0.20244693	          0.66426286	          0.30895607	         -0.27617206	          1.14232854	          0.45433156	         -0.41576755	          1.06638836	          0.33931615	         -0.46590155	          1.13046853	          0.23820770	         -0.40199707	          0.50427908	          0.33130343	         -0.26168953	          0.59367679	          0.11105394	         -0.31110254	          0.55505019	          0.13039665	         -0.21390355	          1.02021490	          0.09246057	         -0.37272253	          1.25334971	          0.11731269	         -0.35638264	          1.21888209	          0.04863006	         -0.43655087	          1.01560207	          1.56657807	         -0.50959516	          1.07328462	          1.53770502	         -0.19679023	          1.10490411	          1.50378775	         -0.33406032	          0.98522825	          1.58011911	         -0.34629118	          0.97543915	          1.44765893	         -0.11528030	          1.01936047	          1.38224914	         -0.10184988	          0.96294349	          1.30630367	         -0.05057751	          0.93516592	          1.24494591	         -0.02395398	          0.90558231	          1.22864032	         -0.10799821	          0.88940070	          1.50861859	         -0.55307362	          0.89434522	          1.42806355	         -0.58658256	          0.80410136	          1.38695498	         -0.59724543	          0.76763264	          1.32649765	         -0.61297567	          0.76471497	          1.30251645	         -0.52545734	          1.02360220	          1.19625722	         -0.06566339	          1.13387979	          1.18322747	         -0.20659495	          1.13733146	          1.12989579	         -0.16185142	          0.82339728	          1.26509840	         -0.62155192	          1.00185758	          1.23261648	         -0.56302368	          0.97865773	          1.17336602	         -0.59740935	
1.39	        -13.40405920	          0.22923023	         -1.07554869	          1.03166643	          1.02180098	         -0.35309799	          9.12480692	          1.14146591	          3.24757053	        -50.65883203	        -11.57824463	         30.64561754	          3.97213057	         -0.41182644	        -15.70648256	          2.03451758	          1.19930357	          0.20923044	          8.84172573	        -23.32810783	        -18.97900871	         -0.52108047	        110.23908320	        116.18151987	        -41.40005378	        -13.76419551	        -11.89037776	        120.15714614	        102.99739774	          0.00000000	          0.00000000	          0.00000000	          0.00000000	          0.00000000	          0.00000000	          0.00000000	          0.00000000	          1.07076383	          1.05152506	         -0.48084619	          1.04853416	          1.06465778	         -0.23465255	          0.88292074	          1.12270336	         -0.40941370	          0.88545313	          1.11842484	         -0.29572714	          0.96743947	          0.94043794	         -0.18059648	          0.89909347	          0.79885912	         -0.19541221	          0.92136860	          0.64401980	         -0.20873252	          0.99688238	          0.93967427	         -0.53391995	          0.96405397	          0.77557020	         -0.48494436	          1.04883541	          0.65877795	         -0.48260864	          0.83195676	          0.40557644	         -0.27405353	          0.75036831	          0.43698076	         -0.20133500	          0.66549365	          0.31088884	         -0.27426556	          1.14072859	          0.44507654	         -0.41653737	          1.06017226	          0.33210506	         -0.46429243	          1.12195105	          0.22949267	         -0.40026112	          0.50479269	          0.33939518	         -0.25879244	          0.58966323	          0.11763887	         -0.30916749	          0.55124540	          0.13726254	         -0.21190794	          1.00580997	          0.09322249	         -0.36948672	          1.24005384	          0.10075186	         -0.35432281	          1.20156296	          0.03899615	         -0.43729753	          1.01516280	          1.55785683	         -0.51102602	          1.07155530	          1.53034510	         -0.19755331	          1.10430575	          1.49652736	         -0.33459800	          0.98388198	          1.57206225	         -0.34798686	          0.97192123	          1.44104589	         -0.11710779	          1.01533763	          1.37553286	         -0.10259400	          0.95770583	          1.30011074	         -0.05189874	          0.92877112	          1.23954327	         -0.02499344	          0.90052565	          1.22296854	         -0.10962838	          0.88970453	          1.49793985	         -0.55519892	          0.89609203	          1.41719070	         -0.58784627	          0.80662955	          1.37431591	         -0.59872113	          0.77116641	          1.31325186	         -0.61434385	          0.76847845	          1.28965161	         -0.52664930	          1.01659348	          1.18756827	         -0.06404989	          1.12904783	          1.16792263	         -0.20321807	          1.12982805	          1.11577300	         -0.15675854	          0.82796874	          1.25266088	         -0.62255814	          1.00671766	          1.22308765	         -0.56313660	          0.98459000	          1.16352249	         -0.59759488	
